{
  "asset": {
    "generator": "glTF-Transform v4.5.0",
    "version": "2.0"
  },
  "accessors": [
    {
      "type": "SCALAR",
      "componentType": 5123,
      "count": 12951,
      "bufferView": 0,
      "byteOffset": 0
    },
    {
      "type": "VEC3",
      "componentType": 5126,
      "count": 1933,
      "max": [
        0.5115094780921936,
        0.9254997372627258,
        0.8763106465339661
      ],
      "min": [
        -0.7471988797187805,
        -0.07252500206232071,
        -0.9484404921531677
      ],
      "bufferView": 1,
      "byteOffset": 0
    },
    {
      "type": "VEC3",
      "componentType": 5126,
      "count": 1933,
      "bufferView": 1,
      "byteOffset": 12
    },
    {
      "type": "VEC2",
      "componentType": 5126,
      "count": 1933,
      "bufferView": 1,
      "byteOffset": 24
    }
  ],
  "bufferViews": [
    {
      "buffer": 0,
      "byteOffset": 0,
      "byteLength": 25904,
      "target": 34963
    },
    {
      "buffer": 0,
      "byteOffset": 25904,
      "byteLength": 61856,
      "byteStride": 32,
      "target": 34962
    }
  ],
  "samplers": [
    {
      "magFilter": 9729,
      "minFilter": 9987,
      "wrapS": 10497,
      "wrapT": 10497
    }
  ],
  "textures": [
    {
      "source": 1,
      "sampler": 0
    },
    {
      "source": 0,
      "sampler": 0
    },
    {
      "source": 2,
      "sampler": 0
    }
  ],
  "images": [
    {
      "name": "boulder_01_nor_gl",
      "mimeType": "image/jpeg",
      "uri": "boulder_01_nor_gl.jpg"
    },
    {
      "name": "boulder_01_diff",
      "mimeType": "image/jpeg",
      "uri": "boulder_01_diff.jpg"
    },
    {
      "name": "boulder_01_rough",
      "mimeType": "image/jpeg",
      "uri": "boulder_01_arm.jpg"
    }
  ],
  "buffers": [
    {
      "uri": "boulder.bin",
      "byteLength": 87760
    }
  ],
  "materials": [
    {
      "name": "boulder_01",
      "doubleSided": true,
      "pbrMetallicRoughness": {
        "metallicFactor": 0,
        "baseColorTexture": {
          "index": 0
        },
        "metallicRoughnessTexture": {
          "index": 2
        }
      },
      "normalTexture": {
        "index": 1
      }
    }
  ],
  "meshes": [
    {
      "name": "rock_PROXY_5m.002",
      "primitives": [
        {
          "attributes": {
            "POSITION": 1,
            "NORMAL": 2,
            "TEXCOORD_0": 3
          },
          "mode": 4,
          "material": 0,
          "indices": 0
        }
      ]
    }
  ],
  "nodes": [
    {
      "name": "boulder_01",
      "mesh": 0
    }
  ],
  "scenes": [
    {
      "name": "Scene",
      "nodes": [
        0
      ]
    }
  ],
  "scene": 0
}